<?xml version="1.0" encoding="utf-8"?>
<!-- Generator: Adobe Illustrator 24.0.1, SVG Export Plug-In . SVG Version: 6.00 Build 0)  -->
<svg version="1.1" id="Layer_1" xmlns="http://www.w3.org/2000/svg" xmlns:xlink="http://www.w3.org/1999/xlink" x="0px" y="0px"
	 viewBox="0 0 351.1 421.9" style="enable-background:new 0 0 351.1 421.9;" xml:space="preserve">
<style type="text/css">
	.st0{fill:#D62D20;}
	.st1{fill:#FFA700;}
	.st2{opacity:0.8;fill:#FFA700;enable-background:new    ;}
	.st3{fill:#0057E7;}
	.st4{fill:#008744;}
	.st5{display:none;}
</style>
<g>
	<path class="st0" d="M71.5,414.2l20.8-42.1L60.8,416l27.9-51l-41.4,56.9L82.5,362l-33.1,46.8l29-49.8L46,399.4l22.8-36.2l-31,40.9
		l24.9-42.7L33,404.1l56.8-85.2c26.1-7.2,34.2,6.8,37,26.5L71.5,414.2z"/>
	<path class="st0" d="M71.5,414.2L92.1,372l0.3,0.2L61,416.1l-0.4-0.3l27.9-51l0.5,0.3L47.6,422l-0.5-0.3l35.2-59.8l0.3,0.2
		l-33.2,46.8l-0.2-0.1L78.1,359l0.3,0.2L46,399.6l-0.4-0.3L68.5,363l0.5,0.3l-31,40.9l-0.6-0.4l24.9-42.7l0.6,0.4l-29.7,42.7
		l-0.6-0.4L61,361.3l28.5-42.6l0.1-0.1h0.1c4.4-1.2,8.9-2,13.5-1.9s9.2,1.4,12.9,4.2c3.6,2.8,6.1,6.9,7.7,11.2
		c1.6,4.3,2.5,8.8,3.2,13.2v0.1l-0.1,0.1L71.5,414.2z M71.5,414.1l55-68.9v0.2c-0.7-4.5-1.6-8.9-3.2-13.1s-4-8.2-7.6-10.9
		c-3.6-2.7-8.1-4-12.6-4.1s-9,0.7-13.3,1.9l0.2-0.1l-28.4,42.6l-28.4,42.6l-0.6-0.4l29.7-42.7l0.6,0.4L38,404.3l-0.6-0.4L68.5,363
		l0.5,0.3l-22.8,36.1l-0.4-0.3l32.5-40.3l0.3,0.2l-29,49.8l-0.2-0.1l33-46.9l0.3,0.2l-35.1,60l-0.5-0.3l41.3-56.9l0.5,0.3l-28,51
		l-0.4-0.3L92.1,372l0.3,0.2L71.5,414.1z"/>
</g>
<g>
	<path class="st0" d="M0,364.3l32.8-36L2.4,373.9L41.1,328L1.7,387.8L46.3,332l-32.7,48.3l37.2-46.2L24.1,379l26.4-35l-27.8,44
		l31.9-39.6l-30,43.7L84.2,319c-3-24.9-18.7-33.3-38.7-31.2L0,364.3z"/>
	<g>
		<path class="st0" d="M0,364.2l32.7-36.1l0.3,0.2L2.6,374.1l-0.4-0.3l38.7-45.9l0.5,0.4L2,387.9l-0.4-0.3l44.7-55.8l0.3,0.2
			l-32.8,48.3l-0.2-0.1l37-46.2l0.3,0.2L24.3,379l-0.4-0.3l26.3-35l0.5,0.3l-27.8,44l-0.6-0.4l31.9-39.7l0.6,0.4l-30,43.7l-0.6-0.4
			L84,318.8l-0.1,0.2c-0.6-4.6-1.7-9.2-3.5-13.5c-1.9-4.3-4.6-8.2-8.2-11.1c-3.6-3-8-4.9-12.6-5.8s-9.3-1-14-0.5l0.2-0.1L0,364.2z
			 M0,364.3l45.4-76.6l0.1-0.1h0.1c4.7-0.5,9.5-0.5,14.1,0.5c4.6,0.9,9.1,2.9,12.8,5.9c3.7,3,6.5,7,8.4,11.3s3,9,3.6,13.7v0.1
			l-0.1,0.1l-59.7,73l-0.6-0.4l30-43.7l0.6,0.4l-31.9,39.6l-0.6-0.4l27.8-44l0.5,0.3l-26.4,34.9l-0.4-0.3L50.6,334l0.3,0.2
			l-37.2,46.2l-0.2-0.1l32.7-48.4l0.3,0.2L1.9,387.9l-0.4-0.3l39.3-59.7l0.5,0.4L2.5,374.1l-0.4-0.3l30.5-45.7l0.3,0.2L0,364.3z"/>
	</g>
</g>
<g>
	<path class="st1" d="M330.5,20.3c0.8-0.3,1.8,0.2,1.9,1.1c0.1,0.4-0.1,0.8-0.2,1.1l-0.3,1.1l-1.1,4.3c-0.7,2.9-1.5,5.8-2.3,8.6
		c-1.6,5.7-3.3,11.4-5.2,17c-1.9,5.6-3.9,11.2-6.1,16.8c-2.2,5.5-4.5,11-7.1,16.3c-2.5,5.4-5.4,10.6-8.3,15.8
		c-0.7,1.3-1.6,2.5-2.3,3.8c-0.8,1.3-1.5,2.5-2.4,3.8c-1.7,2.4-3.4,4.9-5.1,7.3l-5.4,7.1l-5.6,6.9c-1.9,2.3-3.8,4.6-5.7,6.8
		l-2.9,3.4l-2.9,3.4c-15.6,18-31.8,35.4-47.4,53.3c-7.8,8.9-15.5,18-22.7,27.4c-1.8,2.4-3.6,4.7-5.3,7.2c-1.7,2.4-3.4,4.8-4.9,7.4
		L187,244c0,0.1-0.1,0.5-0.2,0.9l-0.2,1.1l-0.4,2.2c-0.6,2.9-1.1,5.9-1.7,8.8c-2.6,11.6-6.3,23-11.2,34
		c-4.8,10.9-10.9,21.3-18.2,30.8c-3.6,4.8-7.6,9.2-11.8,13.5c-4.2,4.2-8.8,8.1-13.7,11.6l-0.5,0.3c-0.3,0.2-0.6,0.3-0.9,0.3
		c-0.6,0.1-1.3-0.1-1.8-0.6c-0.2-0.2-0.4-0.5-0.5-0.8c-0.1-0.2-0.1-0.3-0.1-0.5v-0.3l-0.1-1.1c-0.2-1.5-0.4-2.9-0.7-4.3
		c-0.6-2.9-1.4-5.7-2.5-8.3c-0.6-1.3-1.2-2.6-2-3.8c-0.8-1.2-1.7-2.3-2.6-3.3c-2-2-4.4-3.5-7.1-4.4s-5.6-1-8.4-0.8
		c-2.9,0.2-5.7,0.9-8.5,1.8l-2.1,0.7l-0.3,0.1c-0.2,0-0.3,0.1-0.5,0.1c-0.3,0-0.7,0-1-0.2c-0.6-0.3-1.1-0.8-1.3-1.4
		c-0.2-0.6-0.1-1.4,0.3-1.9l0.1-0.2l0.1-0.1l0.2-0.2l0.4-0.4l1.4-1.7l5.7-6.8l23-27.2l46-54.5l1.8,1.6l-49.4,54.7l-24.7,27.4
		l-6.2,6.8l-1.5,1.7l-0.4,0.4c-0.2,0.2-0.5,0.5-0.9,0.7c-0.8,0.4-1.7,0.3-2.4-0.1c-0.7-0.4-1.3-1.1-1.4-1.9c-0.1-0.5,0-0.5,0-0.8
		v-0.6c0-0.7-0.1-1.5-0.1-2.2c-0.5-5.9-2.2-11.8-5.4-16.7c-1.6-2.4-3.6-4.6-5.9-6.2c-1.2-0.8-2.4-1.5-3.7-2.1
		c-1.3-0.5-2.7-1-4.1-1.2c-2.8-0.5-5.8-0.4-8.7,0.1c-0.7,0.1-1.4,0.2-2.2,0.4c-0.7,0.2-1.4,0.3-2.1,0.6c-0.7,0.2-1.4,0.4-2.1,0.7
		l-1,0.4l-0.6,0.2c-0.4,0.1-0.8,0.2-1.3,0.1c-0.9-0.1-1.6-0.7-2-1.4c-0.4-0.7-0.5-1.7-0.1-2.5c0-0.1,0.1-0.2,0.1-0.2l0.1-0.1
		l0.1-0.3l0.3-0.5l0.6-1l2.3-4c0.7-1.4,1.6-2.7,2.4-4l2.5-3.9c0.8-1.3,1.7-2.6,2.6-3.9l2.6-3.8c1.8-2.5,3.7-4.9,5.6-7.4
		c7.7-9.7,16.4-18.6,26-26.5s20-14.8,31.2-20.1c0.7-0.3,1.4-0.7,2.1-1l2.2-0.9l4.3-1.8c1.4-0.6,2.9-1,4.4-1.5s2.9-1,4.4-1.4l4.5-1.2
		l2.3-0.6h0.1l0,0l0,0l0,0c0,0,0,0,0-0.1l0.7-0.9l5.5-7.4l21.9-29.6c14.7-19.7,29.5-39.3,44.5-58.8c7.5-9.7,15.1-19.4,22.9-28.9
		c3.9-4.8,7.8-9.5,12.4-13.7l3.5-3c1.2-1,2.4-1.9,3.7-2.8c2.4-1.9,5-3.6,7.5-5.3C275.1,46.1,286,40.3,297,35
		C307.8,29.6,319.1,24.7,330.5,20.3z M330.6,20.6c-11.4,4.5-22.7,9.4-33.7,14.8s-21.8,11.3-32,18.1c-2.5,1.8-5.1,3.4-7.4,5.4
		c-1.2,1-2.4,1.9-3.6,2.8l-3.4,3c-4.4,4.2-8.3,8.9-12.1,13.7c-7.7,9.6-15.1,19.4-22.5,29.2c-14.8,19.6-29.3,39.4-43.8,59.3
		l-21.7,29.8l-5.4,7.5l-0.7,0.9c0,0-0.2,0.2-0.3,0.4c-0.1,0.1-0.3,0.3-0.5,0.4c-0.2,0.1-0.4,0.2-0.6,0.3c-0.1,0-0.2,0.1-0.3,0.1
		h-0.1l-2.2,0.6l-4.4,1.2c-1.5,0.4-2.9,1-4.3,1.4c-1.4,0.5-2.9,0.9-4.3,1.5l-4.2,1.8l-2.1,0.9c-0.7,0.3-1.4,0.7-2,1
		c-11,5.2-21.2,12-30.6,19.7c-9.4,7.8-17.9,16.5-25.5,26.1c-1.8,2.4-3.7,4.8-5.5,7.3l-2.6,3.8c-0.9,1.3-1.8,2.5-2.6,3.8l-2.4,3.9
		c-0.8,1.3-1.6,2.6-2.4,3.9l-2.2,4l-1.1,1.9c0-0.1,0-0.2,0-0.2s-0.1-0.1-0.2-0.1h-0.1c0,0,0,0,0.1,0l0.1-0.1l0.3-0.1l1.1-0.4
		c0.7-0.3,1.5-0.5,2.3-0.7s1.5-0.4,2.3-0.6s1.6-0.3,2.4-0.5c3.2-0.5,6.4-0.6,9.7,0c1.6,0.3,3.2,0.8,4.7,1.4c1.5,0.7,3,1.4,4.3,2.4
		c2.7,1.9,5,4.3,6.7,7c3.5,5.4,5.3,11.7,5.8,18c0.1,0.8,0.1,1.6,0.1,2.4v1l-0.1-0.1c0,0-0.1,0-0.2,0c0,0-0.1,0.1,0,0l0.4-0.4
		l1.5-1.7l6.2-6.8l24.8-27.3l49.6-54.6l1.8,1.6l-46.2,54.3l-23.1,27.2l-5.8,6.8l-1.4,1.7l-0.4,0.4l-0.2,0.2l-0.1,0.1l0,0
		c-0.1,0.1,0,0.1,0,0.2s0.1,0.2,0.2,0.2c0,0,0,0,0.1,0c0,0,0.1,0,0.3-0.1l2.1-0.7c2.9-0.9,5.9-1.6,8.9-1.8c3-0.2,6.2-0.1,9.2,0.9
		c3,0.9,5.7,2.6,7.9,4.9c1.1,1.1,2,2.4,2.9,3.7c0.8,1.3,1.5,2.7,2.1,4.1c1.2,2.8,2,5.7,2.6,8.7c0.3,1.5,0.5,3,0.7,4.5l0.1,1.1
		c0,0.1,0,0.2,0,0.2v0.1c0,0,0,0.1,0.1,0.1c0.1,0.1,0.2,0.1,0.3,0.1c0,0,0.1,0,0.1-0.1l0.5-0.3c4.8-3.3,9.3-7.2,13.5-11.3
		c4.2-4.2,8.1-8.5,11.7-13.3c7.2-9.3,13.3-19.6,18.1-30.4s8.5-22.1,11.2-33.6c0.6-2.9,1.1-5.8,1.7-8.7l0.4-2.2l0.2-1.1
		c0.1-0.4,0.1-0.7,0.3-1.3l2.3-3.9c1.5-2.6,3.3-5,4.9-7.5c1.7-2.5,3.5-4.8,5.3-7.2c7.3-9.4,15.1-18.4,22.9-27.3
		c15.8-17.8,32.1-35.1,47.7-53l2.9-3.3l2.9-3.4c1.9-2.3,3.9-4.5,5.8-6.8l5.6-6.9l5.4-7.1c1.8-2.4,3.4-4.8,5.2-7.3
		c0.9-1.2,1.6-2.5,2.4-3.7c0.8-1.3,1.6-2.5,2.3-3.8c3-5.1,5.8-10.3,8.4-15.7c2.6-5.3,4.9-10.8,7.1-16.3s4.2-11.1,6.1-16.7
		s3.6-11.3,5.2-17c0.8-2.9,1.6-5.7,2.3-8.6l1.1-4.3l0.3-1.1c0.1-0.4,0.2-0.7,0.2-1C332,20.7,331.2,20.3,330.6,20.6z"/>
</g>
<path class="st2" d="M51,273.9c18.8-10,50.4,5.7,43.4,34L82,321.5c-5.3-21.4-18.9-31.7-41.1-30.3L51,273.9z"/>
<path class="st2" d="M86.4,322.8l17.1-20.2c16.8-1.5,29.2,10.3,38.1,33.1l-14.7,11.8C122.7,324.9,108.8,317.4,86.4,322.8z"/>
<g>
	<g>
		<circle class="st3" cx="226.3" cy="117" r="6.6"/>
		<path class="st3" d="M232.9,117c0,1.7-0.6,3.5-1.8,4.8c-1.2,1.4-3,2.1-4.8,2.1c-3.7-0.1-6.7-3.3-6.8-6.9c-0.1-1.8,0.6-3.6,1.9-4.9
			c1.3-1.3,3.1-2.1,4.9-2.1c1.8,0,3.6,0.8,4.8,2.2C232.3,113.6,232.9,115.3,232.9,117z M232.8,117c0-1.7-0.8-3.4-2.1-4.5
			c-1.2-1.1-2.9-1.7-4.5-1.7s-3.2,0.6-4.4,1.8c-1.2,1.1-1.9,2.7-2,4.4c-0.1,1.7,0.6,3.4,1.8,4.6s2.9,1.8,4.6,1.7
			c1.6,0,3.2-0.7,4.5-1.8C232,120.4,232.8,118.8,232.8,117z"/>
	</g>
	<g>
		<circle class="st3" cx="253.4" cy="86.3" r="6.6"/>
		<path class="st3" d="M260,86.3c0,1.7-0.6,3.5-1.8,4.8c-1.2,1.4-3,2.1-4.8,2.1c-3.7-0.1-6.7-3.3-6.8-6.9c-0.1-1.8,0.6-3.6,1.9-4.9
			c1.3-1.3,3.1-2.1,4.9-2.1c1.8,0,3.6,0.8,4.8,2.2C259.4,82.8,260,84.6,260,86.3z M259.9,86.3c0-1.7-0.8-3.4-2.1-4.5
			c-1.2-1.1-2.9-1.7-4.5-1.7s-3.2,0.6-4.4,1.8c-1.2,1.1-1.9,2.7-2,4.4c-0.1,1.7,0.6,3.4,1.8,4.6s2.9,1.8,4.6,1.7
			c1.6,0,3.2-0.7,4.5-1.8C259.1,89.7,259.9,88.1,259.9,86.3z"/>
	</g>
	<g>
		<circle class="st3" cx="200" cy="147.8" r="6.6"/>
		<path class="st3" d="M206.6,147.8c0,1.7-0.6,3.5-1.8,4.8c-1.2,1.4-3,2.1-4.8,2.1c-3.7-0.1-6.7-3.3-6.8-6.9
			c-0.1-1.8,0.6-3.6,1.9-4.9c1.3-1.3,3.1-2.1,4.9-2.1c1.8,0,3.6,0.8,4.8,2.2C206,144.3,206.6,146,206.6,147.8z M206.5,147.8
			c0-1.7-0.8-3.4-2.1-4.5c-1.2-1.1-2.9-1.7-4.5-1.7s-3.2,0.6-4.4,1.8c-1.2,1.1-1.9,2.7-2,4.4s0.6,3.4,1.8,4.6
			c1.2,1.2,2.9,1.8,4.6,1.7c1.6,0,3.2-0.7,4.5-1.8C205.7,151.1,206.5,149.5,206.5,147.8z"/>
	</g>
	<g>
		<circle class="st3" cx="239.4" cy="101.7" r="6.6"/>
		<path class="st3" d="M246.1,101.7c0,1.7-0.6,3.5-1.8,4.8c-1.2,1.4-3,2.1-4.8,2.1c-3.7-0.1-6.7-3.3-6.8-6.9
			c-0.1-1.8,0.6-3.6,1.9-4.9c1.3-1.3,3.1-2.1,4.9-2.1c1.8,0,3.6,0.8,4.8,2.2C245.5,98.2,246.1,100,246.1,101.7z M246,101.7
			c0-1.7-0.8-3.4-2.1-4.5c-1.2-1.1-2.9-1.7-4.5-1.7s-3.2,0.6-4.4,1.8c-1.2,1.1-1.9,2.7-2,4.4c-0.1,1.7,0.6,3.4,1.8,4.6
			s2.9,1.8,4.6,1.7c1.6,0,3.2-0.7,4.5-1.8C245.2,105.1,246,103.4,246,101.7z"/>
	</g>
	<g>
		<circle class="st3" cx="213.1" cy="132.4" r="6.6"/>
		<path class="st3" d="M219.7,132.4c0,1.7-0.6,3.5-1.8,4.8c-1.2,1.4-3,2.1-4.8,2.1c-3.7-0.1-6.7-3.3-6.8-6.9
			c-0.1-1.8,0.6-3.6,1.9-4.9c1.3-1.3,3.1-2.1,4.9-2.1c1.8,0,3.6,0.8,4.8,2.2C219.2,128.9,219.7,130.7,219.7,132.4z M219.7,132.4
			c0-1.7-0.8-3.4-2.1-4.5c-1.2-1.1-2.9-1.7-4.5-1.7s-3.2,0.6-4.4,1.8c-1.2,1.1-1.9,2.7-2,4.4s0.6,3.4,1.8,4.6
			c1.2,1.2,2.9,1.8,4.6,1.7c1.6,0,3.2-0.7,4.5-1.8C218.9,135.8,219.7,134.1,219.7,132.4z"/>
	</g>
	<g>
		<circle class="st3" cx="190.6" cy="163.1" r="6.6"/>
		<path class="st3" d="M197.2,163.1c0,1.7-0.6,3.5-1.8,4.8c-1.2,1.4-3,2.1-4.8,2.1c-3.7-0.1-6.7-3.3-6.8-6.9
			c-0.1-1.8,0.6-3.6,1.9-4.9c1.3-1.3,3.1-2.1,4.9-2.1c1.8,0,3.6,0.8,4.8,2.2C196.6,159.6,197.2,161.4,197.2,163.1z M197.1,163.1
			c0-1.7-0.8-3.4-2.1-4.5c-1.2-1.1-2.9-1.7-4.5-1.7s-3.2,0.6-4.4,1.8c-1.2,1.1-1.9,2.7-2,4.4s0.6,3.4,1.8,4.6
			c1.2,1.2,2.9,1.8,4.6,1.7c1.6,0,3.2-0.7,4.5-1.8C196.3,166.5,197.2,164.8,197.1,163.1z"/>
	</g>
</g>
<g>
	<path class="st1" d="M50.9,273.8c5.5-6,11.3-11.6,17.4-16.9c3.1-2.6,6.3-5.1,9.4-7.7l9.4-7.6c6.3-5.1,12.9-9.8,19.7-14.2
		c6.8-4.4,13.9-8.4,21.2-11.9h0.1v0.1c-7,4.1-13.9,8.3-20.6,12.7c-6.8,4.4-13.4,9-19.9,13.8c-1.6,1.2-3.3,2.4-4.8,3.6
		c-1.6,1.2-3.2,2.5-4.7,3.8s-3.1,2.6-4.6,4s-3,2.7-4.5,4.1C62.9,263,57,268.4,50.9,273.8C51,273.9,51,273.9,50.9,273.8
		C50.9,273.9,50.9,273.8,50.9,273.8z"/>
</g>
<g>
	<path class="st1" d="M205.8,161c4.5-6.8,9.3-13.2,14.5-19.4c2.7-3.1,5.4-6,8.1-9.1l8.1-9c5.4-6,11.2-11.7,17.2-17.1
		c6-5.4,12.4-10.5,19.1-15.1l0.1,0l0,0.1c-6.3,5.1-12.4,10.4-18.4,15.8c-6,5.4-11.8,11-17.5,16.7c-1.4,1.4-2.9,2.9-4.2,4.3
		c-1.4,1.4-2.8,3-4,4.5c-1.3,1.5-2.7,3.1-3.9,4.7c-1.3,1.6-2.5,3.1-3.8,4.8C216,148.5,211,154.7,205.8,161
		C205.9,161.1,205.9,161.1,205.8,161C205.8,161.1,205.8,161,205.8,161z"/>
</g>
<g>
	<path class="st1" d="M177.1,256c-2.2,8.4-5.1,16.5-8.6,24.4c-0.9,2-1.8,3.9-2.8,5.8l-1.5,2.9c-0.5,1-0.9,1.9-1.5,2.9
		c-2,3.8-3.9,7.7-6,11.5c-4.1,7.6-8.5,15-13.3,22.2s-9.9,14.2-15.3,20.9c0,0,0,0-0.1,0c0,0,0,0,0-0.1c4.9-7.1,9.8-14.2,14.5-21.4
		c4.7-7.2,9.3-14.5,13.7-21.9c2.2-3.7,4.3-7.5,6.1-11.4c1.9-3.9,3.6-7.8,5.3-11.8C171.1,272.2,174.2,264.2,177.1,256
		C177,256,177,256,177.1,256L177.1,256z"/>
</g>
<g>
	<path class="st1" d="M332,18.9l11.4-10.2l-10,11.6c-0.4,0.4-1,0.5-1.4,0.1S331.6,19.4,332,18.9C332,19,332,18.9,332,18.9z"/>
</g>
<g>
	<circle class="st4" cx="346.4" cy="4.7" r="4.7"/>
	<g>
		<path class="st4" d="M351.1,4.7c0,1.2-0.4,2.5-1.2,3.5c-0.8,1-2.2,1.6-3.5,1.5S343.9,9,343,8.1s-1.4-2.1-1.5-3.4s0.4-2.6,1.3-3.5
			c0.9-1,2.2-1.5,3.5-1.5s2.6,0.6,3.5,1.6C350.7,2.2,351.1,3.4,351.1,4.7z M351,4.7c0-1.2-0.6-2.4-1.5-3.1s-2-1.2-3.1-1.1
			c-1.1,0-2.2,0.4-3,1.2s-1.3,1.9-1.4,3c-0.1,1.2,0.4,2.4,1.2,3.2c0.9,0.8,2.1,1.2,3.2,1.1c1.1,0,2.2-0.5,3.1-1.2
			C350.4,7,351.1,5.9,351,4.7z"/>
	</g>
</g>
<g>
	<polygon class="st1" points="331.6,20.4 302.5,32.8 292.6,66.8 326,48.2 	"/>
	<path class="st1" d="M331.5,20.5L317,27l-7.1,3.2c-2.4,1.1-4.8,2.1-7.2,3.1l0.2-0.3c-0.8,2.8-1.7,5.6-2.6,8.5
		c-0.9,2.8-1.8,5.6-2.6,8.5c-0.9,2.8-1.7,5.6-2.5,8.5c-0.8,2.8-1.6,5.7-2.4,8.5l-0.4-0.3c5.5-3.2,11.1-6.4,16.6-9.5
		c2.8-1.6,5.5-3.2,8.3-4.7l8.4-4.6l-0.2,0.3c0.5-2.3,1-4.5,1.4-6.8l1.5-6.8L331.5,20.5z M331.6,20.4l-2.5,13.8l-1.3,7
		c-0.4,2.4-0.9,4.7-1.3,7.1v0.2l-0.2,0.1l-8.3,4.7c-2.8,1.6-5.6,3.1-8.4,4.6C304,61,298.4,64,292.7,67l-0.6,0.3l0.2-0.6
		c0.9-2.8,1.8-5.6,2.6-8.5c0.9-2.8,1.7-5.6,2.5-8.5c0.8-2.8,1.6-5.7,2.4-8.5s1.5-5.7,2.4-8.5l0.1-0.2l0.2-0.1
		c2.4-1.1,4.9-2.1,7.4-3.1l7.4-3.1L331.6,20.4z"/>
</g>
<path class="st1" d="M142.2,204.8l-86,6.2l-45,45l31.3,32C60.9,248.7,95.2,221.7,142.2,204.8z"/>
<path class="st1" d="M186.3,243.6l6.5,80.2l-34.3,47.6L125.2,347C158.2,324.6,177.6,289.3,186.3,243.6z"/>
<g>
	<path class="st1" d="M172.3,220.1l-8,60.2l-32.1,47.3l-31.7-24.7C144.8,256.3,144.3,255.1,172.3,220.1z"/>
</g>
<g id="bg" class="st5">
</g>
</svg>
