<svg id="Layer_1" data-name="Layer 1" xmlns="http://www.w3.org/2000/svg" viewBox="0 0 195.33 87.14"><defs><style>.cls-1{isolation:isolate;font-size:62.65px;font-family:PatuaOne-Regular, Patua One;}.cls-1,.cls-2{fill:bisque;}.cls-3{fill:none;}</style></defs><title>logoxcale</title><text class="cls-1" transform="translate(52.16 71.67) scale(1.33 1)">cale</text><path class="cls-2" d="M247.09,71.34Z" transform="translate(0 -2.51)"/><path class="cls-3" d="M207.17,17.67Z" transform="translate(0 -2.51)"/><path class="cls-2" d="M15.68,74l-.14.19Z" transform="translate(0 -2.51)"/><path class="cls-2" d="M15.54,74.18Z" transform="translate(0 -2.51)"/><path class="cls-2" d="M106.75,2.51c-27.9,1.93-54,17.3-69.46,29.65-5,4-9.42,7.9-13.27,11.58L10.41,29.34A1.13,1.13,0,0,0,9.62,29H1c-.85,0-1.32.82-.79,1.38l18.11,19C5.31,63.08.5,72.82,0,74c-.11.26,15.68,0,15.68,0s2.78-5.87,11.14-15.63l14.8,15.56a1.09,1.09,0,0,0,.78.32h8.39c.84,0,1.31-.82.79-1.38L32.21,52.39A229,229,0,0,1,57.47,29.65c20.19-15.82,37.94-22.33,49.58-25A1.08,1.08,0,0,0,106.75,2.51Z" transform="translate(0 -2.51)"/></svg>